<?xml version="1.0" encoding="utf-8"?>
<svg fill="#E6EDF3" height="25" viewBox="0 0 25 25" width="25" xmlns="http://www.w3.org/2000/svg">
<path d="M23.75 0H1.25C0.918479 0 0.600537 0.131696 0.366116 0.366116C0.131696 0.600537 0 0.918479 0 1.25V23.75C0 24.0815 0.131696 24.3995 0.366116 24.6339C0.600537 24.8683 0.918479 25 1.25 25H23.75C24.0815 25 24.3995 24.8683 24.6339 24.6339C24.8683 24.3995 25 24.0815 25 23.75V1.25C25 0.918479 24.8683 0.600537 24.6339 0.366116C24.3995 0.131696 24.0815 0 23.75 0ZM7.5 22.5H2.5V17.5H7.5V22.5ZM7.5 15H2.5V10H7.5V15ZM7.5 7.5H2.5V2.5H7.5V7.5ZM15 22.5H10V17.5H15V22.5ZM15 15H10V10H15V15ZM15 7.5H10V2.5H15V7.5ZM22.5 22.5H17.5V17.5H22.5V22.5ZM22.5 15H17.5V10H22.5V15ZM22.5 7.5H17.5V2.5H22.5V7.5Z" fill="#E6EDF3"/>
</svg>