<?xml version="1.0" encoding="utf-8"?>
<svg fill="#E6EDF3" height="76" viewBox="0 0 339 76" width="339" xmlns="http://www.w3.org/2000/svg">
<path d="M10.7822 18.8496C10.7425 21.0736 10.7028 23.228 10.6631 25.313C10.6432 26.2065 10.6234 27.12 10.6035 28.0532C10.6035 28.9865 10.5936 29.9098 10.5737 30.8232C10.5737 31.7168 10.5638 32.5806 10.5439 33.4146C10.5439 34.2287 10.5439 34.9535 10.5439 35.5889C10.5439 36.9193 10.5539 38.5277 10.5737 40.4141C10.5936 42.3005 10.6134 44.2365 10.6333 46.2222C10.673 48.2078 10.7227 50.1141 10.7822 51.9409C10.8418 53.7677 10.9113 55.2868 10.9907 56.498C11.2687 56.5378 11.6361 56.5874 12.0928 56.647C12.5693 56.6867 13.0658 56.7264 13.582 56.7661C14.0983 56.786 14.6047 56.8058 15.1011 56.8257C15.5975 56.8455 16.0145 56.8555 16.3521 56.8555C17.742 56.8555 19.1618 56.7661 20.6113 56.5874C22.0807 56.3888 23.4906 56.0314 24.8408 55.5151C26.2109 54.9989 27.4917 54.2939 28.6831 53.4004C29.8944 52.487 30.9468 51.3154 31.8403 49.8857C32.7537 48.4561 33.4686 46.7384 33.9849 44.7329C34.5011 42.7075 34.7593 40.3247 34.7593 37.5845C34.7593 34.5464 34.3919 31.8459 33.6572 29.4829C32.9225 27.1001 31.8403 25.0946 30.4106 23.4663C29.0008 21.8381 27.2435 20.6069 25.1387 19.7729C23.0537 18.9191 20.651 18.4922 17.9307 18.4922C17.3945 18.4922 16.7889 18.512 16.1138 18.5518C15.4386 18.5716 14.7635 18.6014 14.0884 18.6411C13.4331 18.661 12.8076 18.7007 12.2119 18.7603C11.6361 18.8 11.1595 18.8298 10.7822 18.8496ZM4.25928 16.1689C4.71598 16.1888 5.1429 16.2087 5.54004 16.2285C5.8776 16.2484 6.2251 16.2682 6.58252 16.2881C6.93994 16.2881 7.22786 16.2881 7.44629 16.2881C7.82357 16.2881 8.44906 16.2682 9.32275 16.2285C10.2163 16.1888 11.229 16.1491 12.3608 16.1094C13.4927 16.0697 14.6642 16.0299 15.8755 15.9902C17.1066 15.9505 18.2583 15.9307 19.3306 15.9307C22.2098 15.9307 24.95 16.2881 27.5513 17.0029C30.1525 17.7178 32.436 18.8893 34.4019 20.5176C36.3677 22.1458 37.9264 24.2804 39.0781 26.9214C40.2298 29.5623 40.8057 32.8089 40.8057 36.6611C40.8057 39.4212 40.4979 41.9033 39.8823 44.1074C39.2866 46.3115 38.4427 48.2575 37.3506 49.9453C36.2585 51.6331 34.9479 53.0827 33.4189 54.2939C31.9098 55.4854 30.2319 56.4683 28.3853 57.2427C26.5584 58.0171 24.6025 58.583 22.5176 58.9404C20.4326 59.2979 18.2782 59.4766 16.0542 59.4766C15.2599 59.4766 14.2969 59.4468 13.165 59.3872C12.0531 59.3475 10.9312 59.2979 9.79932 59.2383C8.66748 59.1787 7.59521 59.1191 6.58252 59.0596C5.58968 59.0199 4.81527 59 4.25928 59V58.8809C4.37842 58.4639 4.48763 57.9476 4.58691 57.332C4.70605 56.7165 4.80534 55.952 4.88477 55.0386C4.96419 54.1252 5.02376 53.043 5.06348 51.792C5.10319 50.5212 5.12305 49.0418 5.12305 47.354V27.9639C5.12305 26.276 5.10319 24.7967 5.06348 23.5259C5.02376 22.2352 4.96419 21.1331 4.88477 20.2197C4.80534 19.2865 4.70605 18.5021 4.58691 17.8667C4.48763 17.2313 4.37842 16.7051 4.25928 16.2881V16.1689ZM61.4766 59.5361C59.2725 59.5361 57.2074 59.1886 55.2812 58.4937C53.3551 57.7987 51.6772 56.786 50.2476 55.4556C48.8179 54.1053 47.686 52.4473 46.8521 50.4814C46.0379 48.4958 45.6309 46.2321 45.6309 43.6904C45.6309 41.4466 46.0081 39.3716 46.7627 37.4653C47.5173 35.5392 48.5597 33.8713 49.8901 32.4614C51.2205 31.0516 52.7694 29.9495 54.5366 29.1553C56.3237 28.361 58.2498 27.9639 60.3149 27.9639C62.3602 27.9639 64.2565 28.3213 66.0039 29.0361C67.7513 29.7311 69.2604 30.7537 70.5312 32.104C71.8219 33.4344 72.8346 35.0924 73.5693 37.0781C74.3239 39.0439 74.731 41.2878 74.7905 43.8096C72.5467 43.7699 70.3029 43.7401 68.0591 43.7202C65.8153 43.7004 63.4821 43.6904 61.0596 43.6904C59.332 43.6904 57.6442 43.7004 55.9961 43.7202C54.3678 43.7401 52.8984 43.7699 51.5879 43.8096C51.707 45.8747 52.0247 47.7412 52.541 49.4092C53.0771 51.0771 53.8019 52.5068 54.7153 53.6982C55.6486 54.8698 56.7705 55.7733 58.0811 56.4087C59.4115 57.0441 60.9106 57.3618 62.5786 57.3618C63.7303 57.3618 64.8125 57.2327 65.8252 56.9746C66.8577 56.6966 67.791 56.3193 68.625 55.8428C69.459 55.3662 70.2036 54.8102 70.8589 54.1748C71.5142 53.5195 72.0701 52.8146 72.5269 52.0601L72.8843 52.2388L70.6802 57.5405C69.6079 58.0965 68.3271 58.5731 66.8379 58.9702C65.3486 59.3475 63.5615 59.5361 61.4766 59.5361ZM57.5151 41.3672C59.5008 41.3672 61.4865 41.3672 63.4722 41.3672C65.4777 41.3473 67.2946 41.3076 68.9229 41.248C68.7441 39.5205 68.4066 37.9717 67.9102 36.6016C67.4137 35.2314 66.7783 34.0698 66.0039 33.1167C65.2295 32.1636 64.3161 31.4289 63.2637 30.9126C62.2113 30.3963 61.0496 30.1382 59.7788 30.1382C58.6271 30.1382 57.5648 30.3963 56.5918 30.9126C55.6387 31.409 54.8047 32.1338 54.0898 33.0869C53.375 34.04 52.7992 35.2116 52.3623 36.6016C51.9255 37.9717 51.6673 39.5404 51.5879 41.3076C52.4814 41.3473 53.4246 41.3672 54.4175 41.3672C55.4103 41.3672 56.4429 41.3672 57.5151 41.3672ZM83.9941 28.5V28.6191C83.9544 28.7184 83.9246 28.8674 83.9048 29.0659C83.8849 29.2645 83.875 29.4432 83.875 29.6021C83.875 30.2176 83.9644 30.9027 84.1431 31.6572C84.3218 32.3919 84.6395 33.3153 85.0962 34.4272L92.2148 51.375L99.4229 34.6655C99.7207 33.9308 100.038 33.1266 100.376 32.2529C100.714 31.3792 100.882 30.4956 100.882 29.6021C100.882 29.3439 100.862 29.1354 100.823 28.9766C100.783 28.7979 100.743 28.6787 100.704 28.6191V28.5H106.065V28.6191C105.708 28.9964 105.251 29.6715 104.695 30.6445C104.159 31.5977 103.583 32.799 102.967 34.2485L91.9766 59.417H90.2192L80.0327 35.708C79.6753 34.8343 79.2881 34.0003 78.8711 33.2061C78.474 32.3919 78.0868 31.6672 77.7095 31.0317C77.3521 30.3963 77.0343 29.8701 76.7563 29.4531C76.4784 29.0163 76.2897 28.7383 76.1904 28.6191V28.5H83.9941ZM144.488 22.8408L144.22 22.96C142.671 21.5303 140.804 20.3885 138.62 19.5347C136.456 18.6808 134.073 18.2539 131.472 18.2539C128.97 18.2539 126.676 18.651 124.591 19.4453C122.506 20.2197 120.709 21.3516 119.2 22.8408C117.711 24.3301 116.549 26.1569 115.715 28.3213C114.881 30.4857 114.464 32.9479 114.464 35.708C114.464 38.7461 114.861 41.5856 115.656 44.2266C116.45 46.8477 117.632 49.1213 119.2 51.0474C120.769 52.9735 122.725 54.4925 125.068 55.6045C127.431 56.6966 130.181 57.2427 133.318 57.2427C134.45 57.2427 135.582 57.1235 136.714 56.8853C137.846 56.647 138.928 56.2995 139.96 55.8428C141.013 55.3662 141.996 54.8003 142.909 54.145C143.842 53.4699 144.686 52.7054 145.441 51.8516L145.769 52.0601L143.386 58.1362C141.896 58.7121 140.248 59.1489 138.441 59.4468C136.654 59.7645 134.847 59.9233 133.021 59.9233C129.347 59.9233 125.981 59.3971 122.923 58.3447C119.885 57.2725 117.264 55.7633 115.06 53.8174C112.876 51.8714 111.168 49.5382 109.937 46.8179C108.726 44.0776 108.12 41.0396 108.12 37.7036C108.12 35.8172 108.358 33.9606 108.835 32.1338C109.331 30.307 110.046 28.5695 110.979 26.9214C111.913 25.2733 113.064 23.7642 114.435 22.394C115.805 21.0041 117.363 19.8027 119.111 18.79C120.878 17.7773 122.814 16.993 124.919 16.437C127.044 15.8612 129.337 15.5732 131.799 15.5732C135.632 15.5732 139.186 16.159 142.462 17.3306L144.488 22.8408ZM149.045 43.6904C149.045 41.4466 149.462 39.3716 150.296 37.4653C151.13 35.5392 152.272 33.8713 153.721 32.4614C155.191 31.0516 156.918 29.9495 158.904 29.1553C160.889 28.361 163.024 27.9639 165.308 27.9639C167.551 27.9639 169.656 28.3411 171.622 29.0957C173.608 29.8304 175.335 30.8828 176.805 32.2529C178.274 33.623 179.426 35.291 180.26 37.2568C181.114 39.2227 181.541 41.4268 181.541 43.8691C181.541 45.9144 181.183 47.8802 180.468 49.7666C179.753 51.653 178.701 53.321 177.311 54.7705C175.921 56.2201 174.213 57.3817 172.188 58.2554C170.182 59.1092 167.869 59.5361 165.248 59.5361C163.024 59.5361 160.929 59.1688 158.963 58.4341C156.998 57.6994 155.28 56.647 153.811 55.2769C152.341 53.9067 151.18 52.2487 150.326 50.3027C149.472 48.3369 149.045 46.1328 149.045 43.6904ZM165.933 57.3618C167.343 57.3618 168.634 57.0838 169.805 56.5278C170.997 55.9718 172.019 55.1676 172.873 54.1152C173.727 53.0628 174.392 51.7821 174.869 50.2729C175.345 48.7638 175.583 47.0562 175.583 45.1499C175.583 43.0054 175.355 41.0197 174.898 39.1929C174.442 37.3462 173.757 35.7576 172.843 34.4272C171.95 33.077 170.818 32.0246 169.448 31.27C168.078 30.5155 166.479 30.1382 164.652 30.1382C163.243 30.1382 161.952 30.4162 160.78 30.9722C159.609 31.5083 158.586 32.2926 157.712 33.3252C156.859 34.3577 156.193 35.6286 155.717 37.1377C155.24 38.627 155.002 40.3247 155.002 42.231C155.002 44.3755 155.23 46.3711 155.687 48.2178C156.164 50.0645 156.859 51.6729 157.772 53.043C158.685 54.3932 159.817 55.4556 161.167 56.23C162.538 56.9845 164.126 57.3618 165.933 57.3618ZM208.734 38.9248C208.734 36.3037 208.208 34.3776 207.156 33.1465C206.103 31.9154 204.694 31.2998 202.926 31.2998C202.291 31.2998 201.576 31.4388 200.782 31.7168C199.987 31.9749 199.173 32.3324 198.339 32.7891C197.505 33.2259 196.671 33.7422 195.837 34.3379C195.003 34.9336 194.219 35.569 193.484 36.2441L193.425 40.146V47.354C193.425 49.0418 193.445 50.5212 193.484 51.792C193.524 53.043 193.584 54.1252 193.663 55.0386C193.743 55.952 193.832 56.7165 193.931 57.332C194.03 57.9476 194.14 58.4639 194.259 58.8809V59H187.378V58.8809C187.498 58.4639 187.607 57.9476 187.706 57.332C187.825 56.7165 187.915 55.952 187.974 55.0386C188.054 54.1252 188.113 53.043 188.153 51.792C188.212 50.5212 188.242 49.0418 188.242 47.354V40.146C188.242 38.4582 188.212 36.9888 188.153 35.7378C188.113 34.467 188.054 33.3748 187.974 32.4614C187.915 31.548 187.825 30.7835 187.706 30.168C187.607 29.5524 187.498 29.0361 187.378 28.6191V28.5H194.259V28.6191C194.1 29.1156 193.971 29.751 193.872 30.5254C193.792 31.2799 193.703 32.2728 193.604 33.5039C194.418 32.8288 195.291 32.1536 196.225 31.4785C197.178 30.8034 198.161 30.2077 199.173 29.6914C200.186 29.1553 201.219 28.7284 202.271 28.4106C203.323 28.0731 204.356 27.9043 205.369 27.9043C206.917 27.9043 208.228 28.1724 209.3 28.7085C210.392 29.2446 211.276 29.9495 211.951 30.8232C212.646 31.6969 213.143 32.6997 213.44 33.8315C213.758 34.9435 213.917 36.0754 213.917 37.2271V47.354C213.917 49.0418 213.937 50.5212 213.977 51.792C214.016 53.043 214.076 54.1252 214.155 55.0386C214.235 55.952 214.324 56.7165 214.423 57.332C214.523 57.9476 214.632 58.4639 214.751 58.8809V59H207.871V58.8809C207.99 58.4639 208.099 57.9476 208.198 57.332C208.317 56.7165 208.407 55.952 208.466 55.0386C208.546 54.1252 208.605 53.043 208.645 51.792C208.705 50.5212 208.734 49.0418 208.734 47.354V38.9248ZM243.404 38.9248C243.404 36.3037 242.878 34.3776 241.826 33.1465C240.773 31.9154 239.363 31.2998 237.596 31.2998C236.961 31.2998 236.246 31.4388 235.452 31.7168C234.657 31.9749 233.843 32.3324 233.009 32.7891C232.175 33.2259 231.341 33.7422 230.507 34.3379C229.673 34.9336 228.889 35.569 228.154 36.2441L228.095 40.146V47.354C228.095 49.0418 228.115 50.5212 228.154 51.792C228.194 53.043 228.254 54.1252 228.333 55.0386C228.412 55.952 228.502 56.7165 228.601 57.332C228.7 57.9476 228.81 58.4639 228.929 58.8809V59H222.048V58.8809C222.167 58.4639 222.277 57.9476 222.376 57.332C222.495 56.7165 222.584 55.952 222.644 55.0386C222.723 54.1252 222.783 53.043 222.823 51.792C222.882 50.5212 222.912 49.0418 222.912 47.354V40.146C222.912 38.4582 222.882 36.9888 222.823 35.7378C222.783 34.467 222.723 33.3748 222.644 32.4614C222.584 31.548 222.495 30.7835 222.376 30.168C222.277 29.5524 222.167 29.0361 222.048 28.6191V28.5H228.929V28.6191C228.77 29.1156 228.641 29.751 228.542 30.5254C228.462 31.2799 228.373 32.2728 228.273 33.5039C229.088 32.8288 229.961 32.1536 230.895 31.4785C231.848 30.8034 232.831 30.2077 233.843 29.6914C234.856 29.1553 235.889 28.7284 236.941 28.4106C237.993 28.0731 239.026 27.9043 240.039 27.9043C241.587 27.9043 242.898 28.1724 243.97 28.7085C245.062 29.2446 245.946 29.9495 246.621 30.8232C247.316 31.6969 247.812 32.6997 248.11 33.8315C248.428 34.9435 248.587 36.0754 248.587 37.2271V47.354C248.587 49.0418 248.607 50.5212 248.646 51.792C248.686 53.043 248.746 54.1252 248.825 55.0386C248.905 55.952 248.994 56.7165 249.093 57.332C249.193 57.9476 249.302 58.4639 249.421 58.8809V59H242.541V58.8809C242.66 58.4639 242.769 57.9476 242.868 57.332C242.987 56.7165 243.077 55.952 243.136 55.0386C243.216 54.1252 243.275 53.043 243.315 51.792C243.375 50.5212 243.404 49.0418 243.404 47.354V38.9248ZM270.926 59.5361C268.722 59.5361 266.657 59.1886 264.73 58.4937C262.804 57.7987 261.126 56.786 259.697 55.4556C258.267 54.1053 257.135 52.4473 256.301 50.4814C255.487 48.4958 255.08 46.2321 255.08 43.6904C255.08 41.4466 255.457 39.3716 256.212 37.4653C256.966 35.5392 258.009 33.8713 259.339 32.4614C260.67 31.0516 262.219 29.9495 263.986 29.1553C265.773 28.361 267.699 27.9639 269.764 27.9639C271.809 27.9639 273.706 28.3213 275.453 29.0361C277.201 29.7311 278.71 30.7537 279.98 32.104C281.271 33.4344 282.284 35.0924 283.019 37.0781C283.773 39.0439 284.18 41.2878 284.24 43.8096C281.996 43.7699 279.752 43.7401 277.508 43.7202C275.264 43.7004 272.931 43.6904 270.509 43.6904C268.781 43.6904 267.093 43.7004 265.445 43.7202C263.817 43.7401 262.348 43.7699 261.037 43.8096C261.156 45.8747 261.474 47.7412 261.99 49.4092C262.526 51.0771 263.251 52.5068 264.165 53.6982C265.098 54.8698 266.22 55.7733 267.53 56.4087C268.861 57.0441 270.36 57.3618 272.028 57.3618C273.18 57.3618 274.262 57.2327 275.274 56.9746C276.307 56.6966 277.24 56.3193 278.074 55.8428C278.908 55.3662 279.653 54.8102 280.308 54.1748C280.963 53.5195 281.519 52.8146 281.976 52.0601L282.333 52.2388L280.129 57.5405C279.057 58.0965 277.776 58.5731 276.287 58.9702C274.798 59.3475 273.011 59.5361 270.926 59.5361ZM266.964 41.3672C268.95 41.3672 270.936 41.3672 272.921 41.3672C274.927 41.3473 276.744 41.3076 278.372 41.248C278.193 39.5205 277.856 37.9717 277.359 36.6016C276.863 35.2314 276.228 34.0698 275.453 33.1167C274.679 32.1636 273.765 31.4289 272.713 30.9126C271.66 30.3963 270.499 30.1382 269.228 30.1382C268.076 30.1382 267.014 30.3963 266.041 30.9126C265.088 31.409 264.254 32.1338 263.539 33.0869C262.824 34.04 262.248 35.2116 261.812 36.6016C261.375 37.9717 261.117 39.5404 261.037 41.3076C261.931 41.3473 262.874 41.3672 263.867 41.3672C264.86 41.3672 265.892 41.3672 266.964 41.3672ZM315.395 52.6558L313.191 57.9575C312.655 58.1958 312.039 58.4142 311.344 58.6128C310.649 58.8114 309.924 58.9801 309.17 59.1191C308.435 59.2581 307.691 59.3574 306.936 59.417C306.181 59.4964 305.467 59.5361 304.792 59.5361C302.389 59.5361 300.165 59.1886 298.12 58.4937C296.094 57.7788 294.337 56.7463 292.848 55.396C291.378 54.0457 290.227 52.3877 289.393 50.4219C288.559 48.4561 288.142 46.2122 288.142 43.6904C288.142 41.4466 288.569 39.3716 289.422 37.4653C290.296 35.5392 291.497 33.8713 293.026 32.4614C294.575 31.0516 296.392 29.9495 298.477 29.1553C300.562 28.361 302.826 27.9639 305.268 27.9639C306.38 27.9639 307.571 28.0632 308.842 28.2617C310.113 28.4404 311.245 28.6787 312.238 28.9766L314.353 34.04L313.995 34.2485C313.499 33.633 312.903 33.077 312.208 32.5806C311.533 32.0643 310.778 31.6274 309.944 31.27C309.13 30.9126 308.266 30.6346 307.353 30.436C306.44 30.2375 305.506 30.1382 304.553 30.1382C303.004 30.1382 301.595 30.4162 300.324 30.9722C299.053 31.5083 297.961 32.2926 297.047 33.3252C296.134 34.3577 295.419 35.6286 294.903 37.1377C294.406 38.627 294.158 40.3247 294.158 42.231C294.158 44.3755 294.396 46.3711 294.873 48.2178C295.369 50.0645 296.094 51.6729 297.047 53.043C298.02 54.3932 299.232 55.4556 300.681 56.23C302.151 56.9845 303.868 57.3618 305.834 57.3618C306.747 57.3618 307.651 57.2526 308.544 57.0342C309.458 56.7959 310.312 56.4683 311.106 56.0513C311.92 55.6144 312.665 55.0981 313.34 54.5024C314.015 53.9067 314.581 53.2316 315.038 52.4771L315.395 52.6558ZM332.224 57.2427C332.819 57.2427 333.405 57.1335 333.981 56.915C334.577 56.6966 335.143 56.3988 335.679 56.0215C336.235 55.6442 336.761 55.2173 337.257 54.7407C337.774 54.2443 338.25 53.728 338.687 53.1919L338.985 53.3408L337.049 58.1362C336.811 58.2554 336.513 58.4043 336.155 58.583C335.818 58.7419 335.401 58.8908 334.904 59.0298C334.428 59.1886 333.862 59.3177 333.207 59.417C332.551 59.5361 331.777 59.5957 330.883 59.5957C328.222 59.5957 326.147 58.8809 324.658 57.4512C323.189 56.0016 322.454 53.7479 322.454 50.6899V30.8232L317.45 31.002V28.3809C318.066 28.4206 318.8 28.4504 319.654 28.4702C320.508 28.4901 321.441 28.5 322.454 28.5C322.434 27.0902 322.395 25.8491 322.335 24.7769C322.295 23.6847 322.236 22.7415 322.156 21.9473C322.097 21.1331 322.017 20.4481 321.918 19.8921C321.819 19.3361 321.719 18.8695 321.62 18.4922V18.373H328.5V18.4922C328.381 18.8695 328.272 19.3361 328.173 19.8921C328.074 20.4481 327.984 21.1232 327.905 21.9175C327.845 22.7118 327.786 23.6549 327.726 24.7471C327.686 25.8193 327.657 27.0703 327.637 28.5C328.888 28.4801 330.109 28.4603 331.3 28.4404C332.512 28.4007 333.604 28.361 334.577 28.3213C335.569 28.2617 336.403 28.2121 337.079 28.1724C337.774 28.1128 338.23 28.0632 338.449 28.0234L337.913 31.0615C336.9 31.0417 335.838 31.0119 334.726 30.9722C333.772 30.9325 332.68 30.9027 331.449 30.8828C330.218 30.863 328.947 30.8431 327.637 30.8232V51.3154C327.637 52.5465 327.766 53.5493 328.024 54.3237C328.302 55.0783 328.649 55.674 329.066 56.1108C329.503 56.5477 329.99 56.8455 330.526 57.0044C331.082 57.1632 331.648 57.2427 332.224 57.2427Z" fill="#E6EDF3"/>
</svg>