<?xml version="1.0" encoding="utf-8"?>
<svg fill="#E6EDF3" height="58" viewBox="0 0 180 58" width="180" xmlns="http://www.w3.org/2000/svg">
<path d="M5.47949 9.5957C5.45931 10.7259 5.43913 11.8208 5.41895 12.8804C5.40885 13.3345 5.39876 13.7987 5.38867 14.2729C5.38867 14.7472 5.38363 15.2165 5.37354 15.6807C5.37354 16.1348 5.36849 16.5737 5.3584 16.9976C5.3584 17.4113 5.3584 17.7796 5.3584 18.1025C5.3584 18.7786 5.36344 19.596 5.37354 20.5547C5.38363 21.5133 5.39372 22.4972 5.40381 23.5063C5.42399 24.5155 5.44922 25.4842 5.47949 26.4126C5.50977 27.341 5.54508 28.113 5.58545 28.7285C5.72673 28.7487 5.91341 28.7739 6.14551 28.8042C6.3877 28.8244 6.63997 28.8446 6.90234 28.8647C7.16471 28.8748 7.42204 28.8849 7.67432 28.895C7.9266 28.9051 8.13851 28.9102 8.31006 28.9102C9.01644 28.9102 9.73796 28.8647 10.4746 28.7739C11.2214 28.673 11.9378 28.4914 12.624 28.229C13.3203 27.9666 13.9712 27.6084 14.5767 27.1543C15.1922 26.6901 15.7271 26.0947 16.1812 25.3682C16.6453 24.6416 17.0086 23.7687 17.271 22.7495C17.5334 21.7202 17.6646 20.5093 17.6646 19.1167C17.6646 17.5728 17.4779 16.2004 17.1045 14.9995C16.7311 13.7886 16.1812 12.7694 15.4546 11.9419C14.7381 11.1144 13.8451 10.4888 12.7754 10.0649C11.7158 9.63102 10.4948 9.41406 9.1123 9.41406C8.83984 9.41406 8.53206 9.42415 8.18896 9.44434C7.84587 9.45443 7.50277 9.46956 7.15967 9.48975C6.82666 9.49984 6.50879 9.52002 6.20605 9.55029C5.91341 9.57048 5.67122 9.58561 5.47949 9.5957ZM2.16455 8.2334C2.39665 8.24349 2.61361 8.25358 2.81543 8.26367C2.98698 8.27376 3.16357 8.28385 3.34521 8.29395C3.52686 8.29395 3.67318 8.29395 3.78418 8.29395C3.97591 8.29395 4.29378 8.28385 4.73779 8.26367C5.19189 8.24349 5.70654 8.22331 6.28174 8.20312C6.85693 8.18294 7.45231 8.16276 8.06787 8.14258C8.69352 8.1224 9.27881 8.1123 9.82373 8.1123C11.2869 8.1123 12.6795 8.29395 14.0015 8.65723C15.3234 9.02051 16.4839 9.61589 17.4829 10.4434C18.4819 11.2708 19.2741 12.3556 19.8594 13.6978C20.4447 15.0399 20.7373 16.6898 20.7373 18.6475C20.7373 20.0501 20.5809 21.3115 20.2681 22.4316C19.9653 23.5518 19.5365 24.5407 18.9814 25.3984C18.4264 26.2562 17.7604 26.9928 16.9834 27.6084C16.2165 28.2139 15.3638 28.7134 14.4253 29.1069C13.4969 29.5005 12.5029 29.7881 11.4434 29.9697C10.3838 30.1514 9.2889 30.2422 8.15869 30.2422C7.75505 30.2422 7.26562 30.2271 6.69043 30.1968C6.12533 30.1766 5.55518 30.1514 4.97998 30.1211C4.40479 30.0908 3.85986 30.0605 3.34521 30.0303C2.84066 30.0101 2.4471 30 2.16455 30V29.9395C2.2251 29.7275 2.2806 29.4652 2.33105 29.1523C2.3916 28.8395 2.44206 28.451 2.48242 27.9868C2.52279 27.5226 2.55306 26.9727 2.57324 26.3369C2.59342 25.6911 2.60352 24.9393 2.60352 24.0815V14.2275C2.60352 13.3698 2.59342 12.618 2.57324 11.9722C2.55306 11.3162 2.52279 10.7562 2.48242 10.292C2.44206 9.81771 2.3916 9.41911 2.33105 9.09619C2.2806 8.77327 2.2251 8.50586 2.16455 8.29395V8.2334ZM31.2422 30.2725C30.1221 30.2725 29.0726 30.0959 28.0938 29.7427C27.1149 29.3895 26.2622 28.8748 25.5356 28.1987C24.8091 27.5125 24.2339 26.6699 23.8101 25.6709C23.3963 24.6618 23.1895 23.5114 23.1895 22.2197C23.1895 21.0794 23.3812 20.0249 23.7646 19.0562C24.1481 18.0773 24.6779 17.2297 25.354 16.5132C26.0301 15.7967 26.8172 15.2367 27.7153 14.833C28.6235 14.4294 29.6024 14.2275 30.6519 14.2275C31.6912 14.2275 32.6549 14.4092 33.543 14.7725C34.431 15.1257 35.1979 15.6453 35.8438 16.3315C36.4997 17.0076 37.0143 17.8503 37.3877 18.8594C37.7712 19.8584 37.978 20.9987 38.0083 22.2803C36.868 22.2601 35.7277 22.245 34.5874 22.2349C33.4471 22.2248 32.2614 22.2197 31.0303 22.2197C30.1523 22.2197 29.2946 22.2248 28.457 22.2349C27.6296 22.245 26.8828 22.2601 26.2168 22.2803C26.2773 23.3298 26.4388 24.2783 26.7012 25.126C26.9736 25.9736 27.342 26.7002 27.8062 27.3057C28.2804 27.901 28.8506 28.3602 29.5166 28.6831C30.1927 29.006 30.9546 29.1675 31.8022 29.1675C32.3875 29.1675 32.9375 29.1019 33.4521 28.9707C33.9769 28.8294 34.4512 28.6377 34.875 28.3955C35.2988 28.1533 35.6772 27.8708 36.0103 27.5479C36.3433 27.2148 36.6258 26.8566 36.8579 26.4731L37.0396 26.564L35.9194 29.2583C35.3745 29.5409 34.7236 29.783 33.9668 29.9849C33.21 30.1766 32.3018 30.2725 31.2422 30.2725ZM29.229 21.0391C30.2381 21.0391 31.2472 21.0391 32.2563 21.0391C33.2756 21.029 34.1989 21.0088 35.0264 20.9785C34.9355 20.1006 34.764 19.3135 34.5117 18.6172C34.2594 17.9209 33.9365 17.3306 33.543 16.8462C33.1494 16.3618 32.6852 15.9884 32.1504 15.7261C31.6156 15.4637 31.0252 15.3325 30.3794 15.3325C29.7941 15.3325 29.2542 15.4637 28.7598 15.7261C28.2754 15.9784 27.8516 16.3467 27.4883 16.8311C27.125 17.3154 26.8324 17.9108 26.6104 18.6172C26.3883 19.3135 26.2572 20.1107 26.2168 21.0088C26.6709 21.029 27.1502 21.0391 27.6548 21.0391C28.1593 21.0391 28.6841 21.0391 29.229 21.0391ZM42.6855 14.5V14.5605C42.6654 14.611 42.6502 14.6867 42.6401 14.7876C42.63 14.8885 42.625 14.9793 42.625 15.0601C42.625 15.3729 42.6704 15.721 42.7612 16.1045C42.8521 16.4779 43.0135 16.9471 43.2456 17.5122L46.8633 26.125L50.5264 17.6333C50.6777 17.2599 50.8392 16.8512 51.0107 16.4072C51.1823 15.9632 51.2681 15.5142 51.2681 15.0601C51.2681 14.9289 51.258 14.8229 51.2378 14.7422C51.2176 14.6514 51.1974 14.5908 51.1772 14.5605V14.5H53.9019V14.5605C53.7202 14.7523 53.4881 15.0954 53.2056 15.5898C52.9331 16.0742 52.6405 16.6847 52.3276 17.4214L46.7422 30.2119H45.8491L40.6724 18.1631C40.4907 17.7191 40.2939 17.2952 40.082 16.8916C39.8802 16.4779 39.6834 16.1095 39.4917 15.7866C39.3101 15.4637 39.1486 15.1963 39.0073 14.9844C38.866 14.7624 38.7702 14.6211 38.7197 14.5605V14.5H42.6855ZM73.4282 11.624L73.292 11.6846C72.5049 10.958 71.5563 10.3778 70.4463 9.94385C69.3464 9.50993 68.1354 9.29297 66.8135 9.29297C65.542 9.29297 64.3765 9.49479 63.3169 9.89844C62.2573 10.292 61.3441 10.8672 60.5771 11.624C59.8203 12.3809 59.23 13.3092 58.8062 14.4092C58.3823 15.5091 58.1704 16.7604 58.1704 18.1631C58.1704 19.707 58.3722 21.1501 58.7759 22.4922C59.1795 23.8242 59.7799 24.9797 60.5771 25.9585C61.3743 26.9373 62.3683 27.7093 63.5591 28.2744C64.7599 28.8294 66.1576 29.1069 67.752 29.1069C68.3271 29.1069 68.9023 29.0464 69.4775 28.9253C70.0527 28.8042 70.6027 28.6276 71.1274 28.3955C71.6623 28.1533 72.1618 27.8657 72.626 27.5327C73.1003 27.1896 73.5291 26.8011 73.9126 26.3672L74.0791 26.4731L72.8682 29.561C72.1113 29.8537 71.2738 30.0757 70.3555 30.2271C69.4473 30.3885 68.529 30.4692 67.6006 30.4692C65.7337 30.4692 64.0233 30.2018 62.4692 29.667C60.9253 29.1221 59.5933 28.3551 58.4731 27.3662C57.3631 26.3773 56.4953 25.1916 55.8696 23.8091C55.2541 22.4165 54.9463 20.8726 54.9463 19.1772C54.9463 18.2186 55.0674 17.2751 55.3096 16.3467C55.5618 15.4183 55.9251 14.5353 56.3994 13.6978C56.8737 12.8602 57.459 12.0933 58.1553 11.397C58.8516 10.6906 59.6437 10.0801 60.5317 9.56543C61.4299 9.05078 62.4137 8.65218 63.4834 8.36963C64.5632 8.07699 65.7287 7.93066 66.98 7.93066C68.9276 7.93066 70.7339 8.22835 72.3989 8.82373L73.4282 11.624ZM75.7441 22.2197C75.7441 21.0794 75.9561 20.0249 76.3799 19.0562C76.8037 18.0773 77.384 17.2297 78.1206 16.5132C78.8674 15.7967 79.7453 15.2367 80.7544 14.833C81.7635 14.4294 82.8483 14.2275 84.0088 14.2275C85.1491 14.2275 86.2188 14.4193 87.2178 14.8027C88.2269 15.1761 89.1048 15.7109 89.8516 16.4072C90.5983 17.1035 91.1836 17.9512 91.6074 18.9502C92.0413 19.9492 92.2583 21.0693 92.2583 22.3105C92.2583 23.3499 92.0767 24.349 91.7134 25.3076C91.3501 26.2663 90.8153 27.1139 90.1089 27.8506C89.4025 28.5872 88.5347 29.1776 87.5054 29.6216C86.4862 30.0555 85.3105 30.2725 83.9785 30.2725C82.8483 30.2725 81.7837 30.0858 80.7847 29.7124C79.7856 29.339 78.9128 28.8042 78.166 28.1079C77.4193 27.4116 76.8289 26.569 76.395 25.5801C75.9611 24.5811 75.7441 23.4609 75.7441 22.2197ZM84.3267 29.1675C85.0431 29.1675 85.6991 29.0262 86.2944 28.7437C86.8999 28.4611 87.4196 28.0524 87.8535 27.5176C88.2874 26.9827 88.6255 26.3319 88.8677 25.5649C89.1099 24.798 89.231 23.9302 89.231 22.9614C89.231 21.8716 89.1149 20.8625 88.8828 19.9341C88.6507 18.9956 88.3026 18.1883 87.8384 17.5122C87.3843 16.826 86.8091 16.2912 86.1128 15.9077C85.4165 15.5243 84.6042 15.3325 83.6758 15.3325C82.9593 15.3325 82.3034 15.4738 81.708 15.7563C81.1126 16.0288 80.5929 16.4274 80.1489 16.9521C79.715 17.4769 79.377 18.1227 79.1348 18.8896C78.8926 19.6465 78.7715 20.5093 78.7715 21.478C78.7715 22.5679 78.8875 23.582 79.1196 24.5205C79.3618 25.459 79.715 26.2764 80.1792 26.9727C80.6434 27.6589 81.2186 28.1987 81.9048 28.5923C82.6011 28.9757 83.4084 29.1675 84.3267 29.1675ZM106.078 19.7979C106.078 18.4658 105.811 17.487 105.276 16.8613C104.741 16.2357 104.025 15.9229 103.126 15.9229C102.804 15.9229 102.44 15.9935 102.037 16.1348C101.633 16.266 101.219 16.4476 100.795 16.6797C100.372 16.9017 99.9478 17.1641 99.5239 17.4668C99.1001 17.7695 98.7015 18.0924 98.3281 18.4355L98.2979 20.4185V24.0815C98.2979 24.9393 98.3079 25.6911 98.3281 26.3369C98.3483 26.9727 98.3786 27.5226 98.4189 27.9868C98.4593 28.451 98.5047 28.8395 98.5552 29.1523C98.6056 29.4652 98.6611 29.7275 98.7217 29.9395V30H95.2251V29.9395C95.2856 29.7275 95.3411 29.4652 95.3916 29.1523C95.4521 28.8395 95.4976 28.451 95.5278 27.9868C95.5682 27.5226 95.5985 26.9727 95.6187 26.3369C95.6489 25.6911 95.6641 24.9393 95.6641 24.0815V20.4185C95.6641 19.5607 95.6489 18.814 95.6187 18.1782C95.5985 17.5324 95.5682 16.9774 95.5278 16.5132C95.4976 16.049 95.4521 15.6605 95.3916 15.3477C95.3411 15.0348 95.2856 14.7725 95.2251 14.5605V14.5H98.7217V14.5605C98.641 14.8128 98.5754 15.1357 98.5249 15.5293C98.4845 15.9128 98.4391 16.4173 98.3887 17.043C98.8024 16.6999 99.2464 16.3568 99.7207 16.0137C100.205 15.6706 100.705 15.3678 101.219 15.1055C101.734 14.833 102.259 14.616 102.793 14.4546C103.328 14.283 103.853 14.1973 104.368 14.1973C105.155 14.1973 105.821 14.3335 106.366 14.606C106.921 14.8784 107.37 15.2367 107.713 15.6807C108.066 16.1247 108.318 16.6343 108.47 17.2095C108.631 17.7746 108.712 18.3498 108.712 18.9351V24.0815C108.712 24.9393 108.722 25.6911 108.742 26.3369C108.762 26.9727 108.793 27.5226 108.833 27.9868C108.873 28.451 108.919 28.8395 108.969 29.1523C109.02 29.4652 109.075 29.7275 109.136 29.9395V30H105.639V29.9395C105.7 29.7275 105.755 29.4652 105.806 29.1523C105.866 28.8395 105.912 28.451 105.942 27.9868C105.982 27.5226 106.013 26.9727 106.033 26.3369C106.063 25.6911 106.078 24.9393 106.078 24.0815V19.7979ZM123.697 19.7979C123.697 18.4658 123.43 17.487 122.895 16.8613C122.36 16.2357 121.644 15.9229 120.746 15.9229C120.423 15.9229 120.059 15.9935 119.656 16.1348C119.252 16.266 118.838 16.4476 118.415 16.6797C117.991 16.9017 117.567 17.1641 117.143 17.4668C116.719 17.7695 116.321 18.0924 115.947 18.4355L115.917 20.4185V24.0815C115.917 24.9393 115.927 25.6911 115.947 26.3369C115.967 26.9727 115.998 27.5226 116.038 27.9868C116.078 28.451 116.124 28.8395 116.174 29.1523C116.225 29.4652 116.28 29.7275 116.341 29.9395V30H112.844V29.9395C112.905 29.7275 112.96 29.4652 113.011 29.1523C113.071 28.8395 113.117 28.451 113.147 27.9868C113.187 27.5226 113.218 26.9727 113.238 26.3369C113.268 25.6911 113.283 24.9393 113.283 24.0815V20.4185C113.283 19.5607 113.268 18.814 113.238 18.1782C113.218 17.5324 113.187 16.9774 113.147 16.5132C113.117 16.049 113.071 15.6605 113.011 15.3477C112.96 15.0348 112.905 14.7725 112.844 14.5605V14.5H116.341V14.5605C116.26 14.8128 116.194 15.1357 116.144 15.5293C116.104 15.9128 116.058 16.4173 116.008 17.043C116.422 16.6999 116.866 16.3568 117.34 16.0137C117.824 15.6706 118.324 15.3678 118.838 15.1055C119.353 14.833 119.878 14.616 120.413 14.4546C120.947 14.283 121.472 14.1973 121.987 14.1973C122.774 14.1973 123.44 14.3335 123.985 14.606C124.54 14.8784 124.989 15.2367 125.332 15.6807C125.685 16.1247 125.938 16.6343 126.089 17.2095C126.25 17.7746 126.331 18.3498 126.331 18.9351V24.0815C126.331 24.9393 126.341 25.6911 126.361 26.3369C126.382 26.9727 126.412 27.5226 126.452 27.9868C126.493 28.451 126.538 28.8395 126.588 29.1523C126.639 29.4652 126.694 29.7275 126.755 29.9395V30H123.258V29.9395C123.319 29.7275 123.374 29.4652 123.425 29.1523C123.485 28.8395 123.531 28.451 123.561 27.9868C123.601 27.5226 123.632 26.9727 123.652 26.3369C123.682 25.6911 123.697 24.9393 123.697 24.0815V19.7979ZM137.684 30.2725C136.563 30.2725 135.514 30.0959 134.535 29.7427C133.556 29.3895 132.704 28.8748 131.977 28.1987C131.25 27.5125 130.675 26.6699 130.251 25.6709C129.838 24.6618 129.631 23.5114 129.631 22.2197C129.631 21.0794 129.823 20.0249 130.206 19.0562C130.59 18.0773 131.119 17.2297 131.795 16.5132C132.472 15.7967 133.259 15.2367 134.157 14.833C135.065 14.4294 136.044 14.2275 137.093 14.2275C138.133 14.2275 139.096 14.4092 139.984 14.7725C140.872 15.1257 141.639 15.6453 142.285 16.3315C142.941 17.0076 143.456 17.8503 143.829 18.8594C144.213 19.8584 144.419 20.9987 144.45 22.2803C143.309 22.2601 142.169 22.245 141.029 22.2349C139.889 22.2248 138.703 22.2197 137.472 22.2197C136.594 22.2197 135.736 22.2248 134.898 22.2349C134.071 22.245 133.324 22.2601 132.658 22.2803C132.719 23.3298 132.88 24.2783 133.143 25.126C133.415 25.9736 133.783 26.7002 134.248 27.3057C134.722 27.901 135.292 28.3602 135.958 28.6831C136.634 29.006 137.396 29.1675 138.244 29.1675C138.829 29.1675 139.379 29.1019 139.894 28.9707C140.418 28.8294 140.893 28.6377 141.316 28.3955C141.74 28.1533 142.119 27.8708 142.452 27.5479C142.785 27.2148 143.067 26.8566 143.299 26.4731L143.481 26.564L142.361 29.2583C141.816 29.5409 141.165 29.783 140.408 29.9849C139.651 30.1766 138.743 30.2725 137.684 30.2725ZM135.67 21.0391C136.68 21.0391 137.689 21.0391 138.698 21.0391C139.717 21.029 140.64 21.0088 141.468 20.9785C141.377 20.1006 141.205 19.3135 140.953 18.6172C140.701 17.9209 140.378 17.3306 139.984 16.8462C139.591 16.3618 139.127 15.9884 138.592 15.7261C138.057 15.4637 137.467 15.3325 136.821 15.3325C136.236 15.3325 135.696 15.4637 135.201 15.7261C134.717 15.9784 134.293 16.3467 133.93 16.8311C133.566 17.3154 133.274 17.9108 133.052 18.6172C132.83 19.3135 132.699 20.1107 132.658 21.0088C133.112 21.029 133.592 21.0391 134.096 21.0391C134.601 21.0391 135.125 21.0391 135.67 21.0391ZM160.283 26.7759L159.163 29.4702C158.89 29.5913 158.577 29.7023 158.224 29.8032C157.871 29.9041 157.503 29.9899 157.119 30.0605C156.746 30.1312 156.367 30.1816 155.984 30.2119C155.6 30.2523 155.237 30.2725 154.894 30.2725C153.673 30.2725 152.543 30.0959 151.503 29.7427C150.474 29.3794 149.581 28.8547 148.824 28.1685C148.077 27.4823 147.492 26.6396 147.068 25.6406C146.645 24.6416 146.433 23.5013 146.433 22.2197C146.433 21.0794 146.65 20.0249 147.083 19.0562C147.528 18.0773 148.138 17.2297 148.915 16.5132C149.702 15.7967 150.625 15.2367 151.685 14.833C152.745 14.4294 153.895 14.2275 155.136 14.2275C155.701 14.2275 156.307 14.278 156.953 14.3789C157.598 14.4697 158.174 14.5908 158.678 14.7422L159.753 17.3154L159.571 17.4214C159.319 17.1086 159.016 16.826 158.663 16.5737C158.32 16.3114 157.937 16.0894 157.513 15.9077C157.099 15.7261 156.66 15.5848 156.196 15.4839C155.732 15.383 155.257 15.3325 154.773 15.3325C153.986 15.3325 153.269 15.4738 152.624 15.7563C151.978 16.0288 151.423 16.4274 150.958 16.9521C150.494 17.4769 150.131 18.1227 149.869 18.8896C149.616 19.6465 149.49 20.5093 149.49 21.478C149.49 22.5679 149.611 23.582 149.854 24.5205C150.106 25.459 150.474 26.2764 150.958 26.9727C151.453 27.6589 152.069 28.1987 152.805 28.5923C153.552 28.9757 154.425 29.1675 155.424 29.1675C155.888 29.1675 156.347 29.112 156.801 29.001C157.265 28.8799 157.699 28.7134 158.103 28.5015C158.517 28.2795 158.895 28.0171 159.238 27.7144C159.581 27.4116 159.869 27.0685 160.101 26.6851L160.283 26.7759ZM168.835 29.1069C169.138 29.1069 169.435 29.0514 169.728 28.9404C170.031 28.8294 170.318 28.6781 170.591 28.4863C170.873 28.2946 171.141 28.0776 171.393 27.8354C171.655 27.5832 171.898 27.3208 172.12 27.0483L172.271 27.124L171.287 29.561C171.166 29.6216 171.015 29.6973 170.833 29.7881C170.661 29.8688 170.45 29.9445 170.197 30.0151C169.955 30.0959 169.667 30.1615 169.334 30.2119C169.001 30.2725 168.608 30.3027 168.154 30.3027C166.802 30.3027 165.747 29.9395 164.99 29.2129C164.243 28.4762 163.87 27.3309 163.87 25.7769V15.6807L161.327 15.7715V14.4395C161.64 14.4596 162.013 14.4748 162.447 14.4849C162.881 14.495 163.355 14.5 163.87 14.5C163.86 13.7835 163.84 13.1528 163.81 12.6079C163.789 12.0529 163.759 11.5736 163.719 11.1699C163.688 10.7562 163.648 10.408 163.598 10.1255C163.547 9.84294 163.497 9.60579 163.446 9.41406V9.35352H166.943V9.41406C166.882 9.60579 166.827 9.84294 166.776 10.1255C166.726 10.408 166.681 10.7511 166.64 11.1548C166.61 11.5584 166.58 12.0378 166.549 12.5928C166.529 13.1377 166.514 13.7734 166.504 14.5C167.14 14.4899 167.76 14.4798 168.366 14.4697C168.981 14.4495 169.536 14.4294 170.031 14.4092C170.535 14.3789 170.959 14.3537 171.302 14.3335C171.655 14.3032 171.888 14.278 171.999 14.2578L171.726 15.8018C171.211 15.7917 170.672 15.7765 170.106 15.7563C169.622 15.7362 169.067 15.721 168.441 15.7109C167.816 15.7008 167.17 15.6908 166.504 15.6807V26.0947C166.504 26.7204 166.569 27.23 166.701 27.6235C166.842 28.007 167.019 28.3097 167.23 28.5317C167.452 28.7537 167.7 28.9051 167.972 28.9858C168.255 29.0666 168.542 29.1069 168.835 29.1069Z" fill="#E6EDF3"/>
</svg>