<?xml version="1.0" encoding="utf-8"?>
<svg fill="#E6EDF3" height="27" viewBox="0 0 97 27" width="97" xmlns="http://www.w3.org/2000/svg">
<path d="M4.77246 8.22852C4.75488 9.21289 4.7373 10.1665 4.71973 11.0894C4.71094 11.4849 4.70215 11.8892 4.69336 12.3022C4.69336 12.7153 4.68896 13.124 4.68018 13.5283C4.68018 13.9238 4.67578 14.3062 4.66699 14.6753C4.66699 15.0356 4.66699 15.3564 4.66699 15.6377C4.66699 16.2266 4.67139 16.9385 4.68018 17.7734C4.68896 18.6084 4.69775 19.4653 4.70654 20.3442C4.72412 21.2231 4.74609 22.0669 4.77246 22.8755C4.79883 23.6841 4.82959 24.3564 4.86475 24.8926C4.98779 24.9102 5.15039 24.9321 5.35254 24.9585C5.56348 24.9761 5.7832 24.9937 6.01172 25.0112C6.24023 25.02 6.46436 25.0288 6.68408 25.0376C6.90381 25.0464 7.08838 25.0508 7.23779 25.0508C7.85303 25.0508 8.48145 25.0112 9.12305 24.9321C9.77344 24.8442 10.3975 24.686 10.9951 24.4575C11.6016 24.229 12.1685 23.917 12.6958 23.5215C13.2319 23.1172 13.6978 22.5986 14.0933 21.9658C14.4976 21.333 14.814 20.5728 15.0425 19.6851C15.271 18.7886 15.3853 17.7339 15.3853 16.521C15.3853 15.1763 15.2227 13.981 14.8975 12.9351C14.5723 11.8804 14.0933 10.9927 13.4604 10.272C12.8364 9.55127 12.0586 9.00635 11.127 8.63721C10.2041 8.25928 9.14062 8.07031 7.93652 8.07031C7.69922 8.07031 7.43115 8.0791 7.13232 8.09668C6.8335 8.10547 6.53467 8.11865 6.23584 8.13623C5.9458 8.14502 5.66895 8.1626 5.40527 8.18896C5.15039 8.20654 4.93945 8.21973 4.77246 8.22852ZM1.88525 7.04199C2.0874 7.05078 2.27637 7.05957 2.45215 7.06836C2.60156 7.07715 2.75537 7.08594 2.91357 7.09473C3.07178 7.09473 3.19922 7.09473 3.2959 7.09473C3.46289 7.09473 3.73975 7.08594 4.12646 7.06836C4.52197 7.05078 4.97021 7.0332 5.47119 7.01562C5.97217 6.99805 6.49072 6.98047 7.02686 6.96289C7.57178 6.94531 8.08154 6.93652 8.55615 6.93652C9.83057 6.93652 11.0435 7.09473 12.1948 7.41113C13.3462 7.72754 14.3569 8.24609 15.2271 8.9668C16.0972 9.6875 16.7871 10.6323 17.2969 11.8013C17.8066 12.9702 18.0615 14.4072 18.0615 16.1123C18.0615 17.334 17.9253 18.4326 17.6528 19.4082C17.3892 20.3838 17.0156 21.2451 16.5322 21.9922C16.0488 22.7393 15.4687 23.3809 14.792 23.917C14.124 24.4443 13.3813 24.8794 12.564 25.2222C11.7554 25.5649 10.8896 25.8154 9.9668 25.9736C9.04395 26.1318 8.09033 26.2109 7.10596 26.2109C6.75439 26.2109 6.32812 26.1978 5.82715 26.1714C5.33496 26.1538 4.83838 26.1318 4.3374 26.1055C3.83643 26.0791 3.36182 26.0527 2.91357 26.0264C2.47412 26.0088 2.13135 26 1.88525 26V25.9473C1.93799 25.7627 1.98633 25.5342 2.03027 25.2617C2.08301 24.9893 2.12695 24.6509 2.16211 24.2466C2.19727 23.8423 2.22363 23.3633 2.24121 22.8096C2.25879 22.2471 2.26758 21.5923 2.26758 20.8452V12.2627C2.26758 11.5156 2.25879 10.8608 2.24121 10.2983C2.22363 9.72705 2.19727 9.23926 2.16211 8.83496C2.12695 8.42188 2.08301 8.07471 2.03027 7.79346C1.98633 7.51221 1.93799 7.2793 1.88525 7.09473V7.04199ZM27.2109 26.2373C26.2354 26.2373 25.3213 26.0835 24.4688 25.7759C23.6162 25.4683 22.8735 25.02 22.2407 24.4312C21.6079 23.8335 21.1069 23.0996 20.7378 22.2295C20.3774 21.3506 20.1973 20.3486 20.1973 19.2236C20.1973 18.2305 20.3643 17.312 20.6982 16.4683C21.0322 15.6157 21.4937 14.8774 22.0825 14.2534C22.6714 13.6294 23.3569 13.1416 24.1392 12.79C24.9302 12.4385 25.7827 12.2627 26.6968 12.2627C27.6021 12.2627 28.4414 12.4209 29.2148 12.7373C29.9883 13.0449 30.6562 13.4976 31.2188 14.0952C31.79 14.6841 32.2383 15.418 32.5635 16.2969C32.8975 17.167 33.0776 18.1602 33.104 19.2764C32.1108 19.2588 31.1177 19.2456 30.1245 19.2368C29.1313 19.228 28.0986 19.2236 27.0264 19.2236C26.2617 19.2236 25.5146 19.228 24.7852 19.2368C24.0645 19.2456 23.4141 19.2588 22.834 19.2764C22.8867 20.1904 23.0273 21.0166 23.2559 21.7549C23.4932 22.4932 23.814 23.126 24.2183 23.6533C24.6313 24.1719 25.1279 24.5718 25.708 24.853C26.2969 25.1343 26.9604 25.2749 27.6987 25.2749C28.2085 25.2749 28.6875 25.2178 29.1357 25.1035C29.5928 24.9805 30.0059 24.8135 30.375 24.6025C30.7441 24.3916 31.0737 24.1455 31.3638 23.8643C31.6538 23.5742 31.8999 23.2622 32.1021 22.9282L32.2603 23.0073L31.2847 25.354C30.8101 25.6001 30.2432 25.811 29.584 25.9868C28.9248 26.1538 28.1338 26.2373 27.2109 26.2373ZM25.4575 18.1953C26.3364 18.1953 27.2153 18.1953 28.0942 18.1953C28.9819 18.1865 29.7861 18.1689 30.5068 18.1426C30.4277 17.3779 30.2783 16.6924 30.0586 16.0859C29.8389 15.4795 29.5576 14.9653 29.2148 14.5435C28.8721 14.1216 28.4678 13.7964 28.002 13.5679C27.5361 13.3394 27.022 13.2251 26.4595 13.2251C25.9497 13.2251 25.4795 13.3394 25.0488 13.5679C24.627 13.7876 24.2578 14.1084 23.9414 14.5303C23.625 14.9521 23.3701 15.4707 23.1768 16.0859C22.9834 16.6924 22.8691 17.3867 22.834 18.1689C23.2295 18.1865 23.647 18.1953 24.0864 18.1953C24.5259 18.1953 24.9829 18.1953 25.4575 18.1953ZM37.1777 12.5V12.5527C37.1602 12.5967 37.147 12.6626 37.1382 12.7505C37.1294 12.8384 37.125 12.9175 37.125 12.9878C37.125 13.2603 37.1646 13.5635 37.2437 13.8975C37.3228 14.2227 37.4634 14.6313 37.6655 15.1235L40.8164 22.625L44.0068 15.229C44.1387 14.9038 44.2793 14.5479 44.4287 14.1611C44.5781 13.7744 44.6528 13.3833 44.6528 12.9878C44.6528 12.8735 44.644 12.7812 44.6265 12.7109C44.6089 12.6318 44.5913 12.5791 44.5737 12.5527V12.5H46.9468V12.5527C46.7886 12.7197 46.5864 13.0186 46.3403 13.4492C46.103 13.8711 45.8481 14.4028 45.5757 15.0444L40.7109 26.1846H39.9331L35.4243 15.6904C35.2661 15.3037 35.0947 14.9346 34.9102 14.583C34.7344 14.2227 34.563 13.9019 34.396 13.6206C34.2378 13.3394 34.0972 13.1064 33.9741 12.9219C33.8511 12.7285 33.7676 12.6055 33.7236 12.5527V12.5H37.1777ZM63.9536 9.99512L63.835 10.0479C63.1494 9.41504 62.3232 8.90967 61.3564 8.53174C60.3984 8.15381 59.3438 7.96484 58.1924 7.96484C57.085 7.96484 56.0698 8.14062 55.147 8.49219C54.2241 8.83496 53.4287 9.33594 52.7607 9.99512C52.1016 10.6543 51.5874 11.4629 51.2183 12.4209C50.8491 13.3789 50.6646 14.4688 50.6646 15.6904C50.6646 17.0352 50.8403 18.292 51.1919 19.4609C51.5435 20.6211 52.0664 21.6274 52.7607 22.48C53.4551 23.3325 54.3208 24.0049 55.3579 24.4971C56.4038 24.9805 57.6211 25.2222 59.0098 25.2222C59.5107 25.2222 60.0117 25.1694 60.5127 25.064C61.0137 24.9585 61.4927 24.8047 61.9497 24.6025C62.4155 24.3916 62.8506 24.1411 63.2549 23.8511C63.668 23.5522 64.0415 23.2139 64.3755 22.8359L64.5205 22.9282L63.4658 25.6177C62.8066 25.8726 62.0771 26.0659 61.2773 26.1978C60.4863 26.3384 59.6865 26.4087 58.8779 26.4087C57.252 26.4087 55.7622 26.1758 54.4087 25.71C53.064 25.2354 51.9038 24.5674 50.9282 23.7061C49.9614 22.8447 49.2056 21.812 48.6606 20.6079C48.1245 19.395 47.8564 18.0503 47.8564 16.5737C47.8564 15.7388 47.9619 14.917 48.1729 14.1084C48.3926 13.2998 48.709 12.5308 49.1221 11.8013C49.5352 11.0718 50.0449 10.4038 50.6514 9.79736C51.2578 9.18213 51.9478 8.65039 52.7212 8.20215C53.5034 7.75391 54.3604 7.40674 55.292 7.16064C56.2324 6.90576 57.2476 6.77832 58.3374 6.77832C60.0337 6.77832 61.6069 7.0376 63.0571 7.55615L63.9536 9.99512ZM65.9707 19.2236C65.9707 18.2305 66.1553 17.312 66.5244 16.4683C66.8936 15.6157 67.3989 14.8774 68.0405 14.2534C68.6909 13.6294 69.4556 13.1416 70.3345 12.79C71.2134 12.4385 72.1582 12.2627 73.1689 12.2627C74.1621 12.2627 75.0938 12.4297 75.9639 12.7637C76.8428 13.0889 77.6074 13.5547 78.2578 14.1611C78.9082 14.7676 79.418 15.5059 79.7871 16.376C80.165 17.2461 80.354 18.2217 80.354 19.3027C80.354 20.208 80.1958 21.0781 79.8794 21.9131C79.563 22.748 79.0972 23.4863 78.4819 24.1279C77.8667 24.7695 77.1108 25.2837 76.2144 25.6704C75.3267 26.0483 74.3027 26.2373 73.1426 26.2373C72.1582 26.2373 71.231 26.0747 70.3608 25.7495C69.4907 25.4243 68.7305 24.9585 68.0801 24.3521C67.4297 23.7456 66.9155 23.0117 66.5376 22.1504C66.1597 21.2803 65.9707 20.3047 65.9707 19.2236ZM73.4458 25.2749C74.0698 25.2749 74.6411 25.1519 75.1597 24.9058C75.687 24.6597 76.1396 24.3037 76.5176 23.8379C76.8955 23.3721 77.1899 22.8052 77.4009 22.1372C77.6118 21.4692 77.7173 20.7134 77.7173 19.8696C77.7173 18.9204 77.6162 18.0415 77.4141 17.2329C77.2119 16.4155 76.9087 15.7124 76.5044 15.1235C76.1089 14.5259 75.6079 14.0601 75.0015 13.7261C74.395 13.3921 73.6875 13.2251 72.8789 13.2251C72.2549 13.2251 71.6836 13.3481 71.165 13.5942C70.6465 13.8315 70.1938 14.1787 69.8071 14.6357C69.4292 15.0928 69.1348 15.6553 68.9238 16.3232C68.7129 16.9824 68.6074 17.7339 68.6074 18.5776C68.6074 19.5269 68.7085 20.4102 68.9106 21.2275C69.1216 22.0449 69.4292 22.7568 69.8335 23.3633C70.2378 23.9609 70.7388 24.4312 71.3364 24.7739C71.9429 25.1079 72.646 25.2749 73.4458 25.2749ZM92.3906 17.1143C92.3906 15.9541 92.1577 15.1016 91.6919 14.5566C91.2261 14.0117 90.6021 13.7393 89.8198 13.7393C89.5386 13.7393 89.2222 13.8008 88.8706 13.9238C88.519 14.0381 88.1587 14.1963 87.7896 14.3984C87.4204 14.5918 87.0513 14.8203 86.6821 15.084C86.313 15.3477 85.9658 15.6289 85.6406 15.9277L85.6143 17.6548V20.8452C85.6143 21.5923 85.623 22.2471 85.6406 22.8096C85.6582 23.3633 85.6846 23.8423 85.7197 24.2466C85.7549 24.6509 85.7944 24.9893 85.8384 25.2617C85.8823 25.5342 85.9307 25.7627 85.9834 25.9473V26H82.938V25.9473C82.9907 25.7627 83.0391 25.5342 83.083 25.2617C83.1357 24.9893 83.1753 24.6509 83.2017 24.2466C83.2368 23.8423 83.2632 23.3633 83.2808 22.8096C83.3071 22.2471 83.3203 21.5923 83.3203 20.8452V17.6548C83.3203 16.9077 83.3071 16.2573 83.2808 15.7036C83.2632 15.1411 83.2368 14.6577 83.2017 14.2534C83.1753 13.8491 83.1357 13.5107 83.083 13.2383C83.0391 12.9658 82.9907 12.7373 82.938 12.5527V12.5H85.9834V12.5527C85.9131 12.7725 85.856 13.0537 85.812 13.3965C85.7769 13.7305 85.7373 14.1699 85.6934 14.7148C86.0537 14.416 86.4404 14.1172 86.8535 13.8184C87.2754 13.5195 87.7104 13.2559 88.1587 13.0273C88.6069 12.79 89.064 12.6011 89.5298 12.4604C89.9956 12.311 90.4526 12.2363 90.9009 12.2363C91.5864 12.2363 92.1665 12.355 92.6411 12.5923C93.1245 12.8296 93.5156 13.1416 93.8145 13.5283C94.1221 13.915 94.3418 14.3589 94.4736 14.8599C94.6143 15.3521 94.6846 15.853 94.6846 16.3628V20.8452C94.6846 21.5923 94.6934 22.2471 94.7109 22.8096C94.7285 23.3633 94.7549 23.8423 94.79 24.2466C94.8252 24.6509 94.8647 24.9893 94.9087 25.2617C94.9526 25.5342 95.001 25.7627 95.0537 25.9473V26H92.0083V25.9473C92.061 25.7627 92.1094 25.5342 92.1533 25.2617C92.2061 24.9893 92.2456 24.6509 92.272 24.2466C92.3071 23.8423 92.3335 23.3633 92.3511 22.8096C92.3774 22.2471 92.3906 21.5923 92.3906 20.8452V17.1143Z" fill="#E6EDF3"/>
</svg>